<svg xmlns:x="http://ns.adobe.com/Extensibility/1.0/" xmlns:i="http://ns.adobe.com/AdobeIllustrator/10.0/" xmlns:graph="http://ns.adobe.com/Graphs/1.0/" xmlns="http://www.w3.org/2000/svg" xmlns:xlink="http://www.w3.org/1999/xlink" version="1.1" x="0px" y="0px" viewBox="0 0 100 125" enable-background="new 0 0 100 100" xml:space="preserve"><metadata><sfw xmlns="http://ns.adobe.com/SaveForWeb/1.0/"><slices/><sliceSourceBounds width="1445.9" height="1445.9" x="2.9" y="-1447.6" bottomLeftOrigin="true"/></sfw></metadata><path d="M78.8,51.4c1.7,0.3,3.3,0.5,4.8,0.6v29.6c0,4-3.3,7.3-7.3,7.3H43.3c-0.6,0-1.2-0.1-1.8-0.2c0.5-0.4,0.9-0.7,1.3-1.1L78,52.2  C78.3,52,78.6,51.7,78.8,51.4z M92.9,29.2c5.3,5.3,4.7,9.4,3.9,11.4c-0.8,2-3.3,5.2-10.8,5.3c-3,0-6.5-0.5-10-1.5  c-0.5,1.3-1.3,2.5-2.3,3.5L38.5,83c-2.8,2.8-7.4,2.8-10.3,0L4.8,59.7C2,56.8,2,52.2,4.8,49.4L40,14.2c2-2,4.7-3.1,7.4-3l21.1,0.3  c4.3,0.1,7.8,3.5,7.8,7.8l0,0.1c1,0.3,2,0.7,3,1.1c5.4,2.2,10.1,5.3,13.4,8.5C92.8,29.1,92.8,29.2,92.9,29.2z M88.5,33.5  c0,0-0.1-0.1-0.1-0.1c-2.7-2.7-6.8-5.3-11.4-7.2c-0.2-0.1-0.3-0.1-0.5-0.2l0.1,8.5c-1-0.3-2-0.7-3-1.1c-3-1.2-5.7-2.7-8-4.4  c0.3-1.8-0.3-3.7-1.7-5.1c-2.4-2.4-6.2-2.4-8.5,0c-2.4,2.4-2.4,6.2,0,8.5c2.4,2.4,6.2,2.4,8.5,0c0.1-0.1,0.2-0.2,0.3-0.3  c2.4,1.8,5.3,3.4,8.5,4.7c10.8,4.5,17.8,3.1,18.5,1.5C91.3,37.7,91.1,36.1,88.5,33.5z"/><text x="0" y="115" fill="#000000" font-size="5px" font-weight="bold" font-family="'Helvetica Neue', Helvetica, Arial-Unicode, Arial, Sans-serif">Created by Gregor Cresnar</text><text x="0" y="120" fill="#000000" font-size="5px" font-weight="bold" font-family="'Helvetica Neue', Helvetica, Arial-Unicode, Arial, Sans-serif">from the Noun Project</text></svg>