<?xml version="1.0" encoding="utf-8"?>
<!-- Generator: Adobe Illustrator 19.0.0, SVG Export Plug-In . SVG Version: 6.00 Build 0)  -->
<svg version="1.1" id="Calque_1" xmlns="http://www.w3.org/2000/svg" xmlns:xlink="http://www.w3.org/1999/xlink" x="0px" y="0px"
	 viewBox="0 0 23 28" style="enable-background:new 0 0 23 28;" xml:space="preserve">
<style type="text/css">
	.st0{fill:#414653;}
</style>
<path id="XMLID_1_" class="st0" d="M22.8,25.2c-0.3-0.5-0.9-0.6-1.4-0.3c0,0-3.2,1.9-7.8,0.7c-2.8-0.8-5.2-3.2-6.4-6.5
	c-0.2-0.5-0.3-0.9-0.4-1.4h13.6c0.6,0,1-0.5,1-1c0-0.6-0.5-1-1-1H6.4c-0.1-1-0.1-2,0-2.9h14c0.6,0,1-0.5,1-1c0-0.6-0.5-1-1-1H6.7
	c0.4-1.6,1.1-3.2,2-4.6c4.6-6.6,12.2-2.8,12.5-2.6c0.5,0.3,1.1,0.1,1.4-0.4c0.3-0.5,0.1-1.1-0.4-1.4c-0.1,0-2.4-1.2-5.4-1.4
	C12.7-0.2,9.4,1.4,7,4.7c-1.2,1.7-2,3.7-2.4,5.7H1.1c-0.6,0-1,0.5-1,1c0,0.6,0.5,1,1,1h3.2c-0.1,1-0.1,2,0,2.9H1.1c-0.6,0-1,0.5-1,1
	c0,0.6,0.5,1,1,1h3.6c0.2,0.7,0.4,1.4,0.6,2.1c1.5,4,4.3,6.9,7.8,7.8c1.3,0.4,2.5,0.5,3.6,0.5c3.4,0,5.7-1.3,5.8-1.4
	C23,26.3,23.1,25.7,22.8,25.2z"/>
</svg>
