<?xml version="1.0" encoding="utf-8"?>
<!-- Generator: Adobe Illustrator 19.0.0, SVG Export Plug-In . SVG Version: 6.00 Build 0)  -->
<svg version="1.1" id="Calque_1" xmlns="http://www.w3.org/2000/svg" xmlns:xlink="http://www.w3.org/1999/xlink" x="0px" y="0px"
	 viewBox="0 0 42 22" style="enable-background:new 0 0 42 22;" xml:space="preserve">
<style type="text/css">
	.st0{fill:#414653;}
</style>
<path class="st0" d="M31.3,13.4c-4-1.5-8-2.8-9.5-3.2c-0.1-0.9-0.1-1.8,0-2.1C21.9,8,22,7.9,22.1,7.8c0.8-0.6,2.2-1.8,2.2-4.4
	c0-2-2-3.3-3.9-3.3c-1,0-1.9,0.3-2.5,0.9c-0.5,0.5-1.2,1.4-1.2,2.9c0,0.5,0.4,1,1,1c0.5,0,1-0.4,1-1c0-0.7,0.2-1.2,0.5-1.5
	C19.5,2.2,19.9,2,20.4,2c0.9,0,1.9,0.5,1.9,1.4c0,1.7-0.8,2.4-1.5,2.9c-0.2,0.2-0.4,0.4-0.6,0.6c-0.5,0.6-0.5,2-0.5,3.3
	c-1.6,0.4-5.4,1.5-9.2,2.8C1.3,16.2,0,18.1,0,19.5c0,1.4,1.7,1.9,7,2.2C10.9,22,16.2,22,21,22c1.4,0,2.8,0,4.1,0c1.3,0,2.5,0,3.7,0
	c3.2,0,6.5,0,8.9-0.3c2.3-0.2,4.4-0.6,4.4-2.2C42,18.4,41.2,17,31.3,13.4z M36.6,19.9c-2.2,0.2-5.2,0.2-7.9,0.2c-1.2,0-2.4,0-3.7,0
	c-1.3,0-2.7,0-4.1,0c-5.3,0-9.5,0-12.9-0.2c-3.8-0.2-5.3-0.4-6-0.6c0.5-0.6,2.3-2,9.3-4.4c4.2-1.4,8.3-2.6,9.4-2.9
	c1.1,0.3,5.1,1.6,9.2,3.1c6.9,2.5,9.1,3.8,9.8,4.4C39.4,19.5,38.5,19.7,36.6,19.9z"/>
</svg>
