<?xml version="1.0" encoding="utf-8"?>
<!-- Generator: Adobe Illustrator 19.0.0, SVG Export Plug-In . SVG Version: 6.00 Build 0)  -->
<svg version="1.1" id="Calque_1" xmlns="http://www.w3.org/2000/svg" xmlns:xlink="http://www.w3.org/1999/xlink" x="0px" y="0px"
	 viewBox="0 0 352 280.9" style="enable-background:new 0 0 352 280.9;" xml:space="preserve">
<style type="text/css">
	.st0{fill:#414653;stroke:#414653;stroke-miterlimit:10;}
</style>
<path class="st0" d="M84.3,68.3h189.9c22,0,40.6,14.6,46.6,34.6v-5.4c0-26.3-21.3-47.6-47.6-47.6H88.4c-25.5,0-46.3,20-47.6,45.3
	C48.9,79.2,65.3,68.3,84.3,68.3z"/>
<path class="st0" d="M320.8,127.8c0,0,0-0.1,0-0.1c0-0.1,0-0.1,0-0.2c0-25.7-20.9-46.6-46.6-46.6H84.3c-19.9,0-36.8,12.5-43.5,30
	c-2,5.2-3.1,10.7-3.1,16.6c0,0.1,0,0.2,0,0.3L7.5,234.4c0.1,25.6,20.9,46.4,46.6,46.4h251.3c25.6,0,46.5-20.8,46.6-46.4L320.8,127.8
	z"/>
<g>
	<path class="st0" d="M165.7,0c-6.2,0-11.3,5.1-11.3,11.3c0,2.7,1,5.1,2.5,7c-0.4,0.2-0.7,0.5-1,0.8l-13.4,16.3
		c-1.1,1.3-0.9,3.3,0.4,4.4c0.6,0.5,1.3,0.7,2,0.7c0.9,0,1.8-0.4,2.4-1.2l13.4-16.3c0.3-0.4,0.5-0.9,0.6-1.4
		c1.3,0.5,2.7,0.8,4.2,0.8c6.2,0,11.3-5.1,11.3-11.3C177,5.1,172,0,165.7,0z"/>
	<path class="st0" d="M240.9,34.5h-27.1l-12.7-15.5c-0.4-0.5-1-0.9-1.7-1c1.4-1.9,2.3-4.2,2.3-6.7c0-6.2-5.1-11.3-11.3-11.3
		c-6.2,0-11.3,5.1-11.3,11.3c0,6.2,5.1,11.3,11.3,11.3c1.8,0,3.6-0.5,5.1-1.3c0,0.6,0.3,1.2,0.7,1.8l13.4,16.3
		c0.6,0.7,1.4,1.1,2.2,1.1c0.4,0.2,0.9,0.4,1.4,0.4h27.7c1.7,0,3.2-1.4,3.2-3.2S242.6,34.5,240.9,34.5z"/>
</g>
</svg>
